<svg xmlns="http://www.w3.org/2000/svg" xmlns:xlink="http://www.w3.org/1999/xlink" width="80" height="87" viewBox="0 0 80 87">
  <defs>
    <circle id="ui-design-2-a" cx="10" cy="10" r="10"/>
    <circle id="ui-design-2-c" cx="10" cy="10" r="10"/>
    <circle id="ui-design-2-e" cx="10" cy="10" r="10"/>
    <circle id="ui-design-2-g" cx="10" cy="10" r="10"/>
  </defs>
  <g fill="none" fill-rule="evenodd">
    <g fill="#5367FF" fill-rule="nonzero" transform="translate(19.492 26.78)">
      <circle cx="1.315" cy="1.331" r="1.274"/>
      <path d="M14.1033898,2.60186441 L7.24728814,2.60186441 C6.54508475,2.60186441 5.97610169,2.03288136 5.97610169,1.33067797 C5.97610169,0.628474576 6.54508475,0.0594915254 7.24728814,0.0594915254 L14.1033898,0.0594915254 C14.8055932,0.0594915254 15.3745763,0.628474576 15.3745763,1.33067797 C15.3745763,2.03288136 14.8055932,2.60186441 14.1033898,2.60186441 Z"/>
    </g>
    <path fill="#5367FF" fill-rule="nonzero" d="M33.5949153,34.1688136 L20.7918644,34.1688136 C20.089661,34.1688136 19.520678,33.5998305 19.520678,32.8976271 C19.520678,32.1954237 20.089661,31.6264407 20.7918644,31.6264407 L33.5949153,31.6264407 C34.2971186,31.6264407 34.8661017,32.1954237 34.8661017,32.8976271 C34.8661017,33.5998305 34.2971186,34.1688136 33.5949153,34.1688136 L33.5949153,34.1688136 Z"/>
    <path fill="#5367FF" fill-rule="nonzero" d="M37.0091525,45.5827119 L16.7469492,45.5827119 C14.3005085,45.5827119 12.310339,43.5925424 12.310339,41.1461017 L12.310339,20.8840678 C12.310339,18.4376271 14.3005085,16.4474576 16.7469492,16.4474576 C17.4491525,16.4474576 18.0181356,17.0164407 18.0181356,17.7186441 C18.0181356,18.4208475 17.4491525,18.9898305 16.7469492,18.9898305 C15.7025424,18.9898305 14.8527119,19.839661 14.8527119,20.8840678 L14.8527119,41.1462712 C14.8527119,42.190678 15.7025424,43.0405085 16.7469492,43.0405085 L37.009322,43.0405085 C38.0537288,43.0405085 38.9035593,42.190678 38.9035593,41.1462712 L38.9035593,20.8840678 C38.9035593,19.839661 38.0537288,18.9898305 37.009322,18.9898305 L23.0123729,18.9898305 C22.3101695,18.9898305 21.7411864,18.4208475 21.7411864,17.7186441 C21.7411864,17.0164407 22.3101695,16.4474576 23.0123729,16.4474576 L37.009322,16.4474576 C39.4557627,16.4474576 41.4459322,18.4376271 41.4459322,20.8840678 L41.4459322,41.1462712 C41.4459322,43.5925424 39.4555932,45.5827119 37.0091525,45.5827119 Z" opacity=".1"/>
    <g transform="translate(17 21)">
      <circle cx="10" cy="10" r="10" fill="#5367FF" fill-rule="nonzero"/>
      <mask id="ui-design-2-b" fill="#fff">
        <use xlink:href="#ui-design-2-a"/>
      </mask>
      <polygon fill="#00FFC4" fill-rule="nonzero" points="-.577 13.364 5.653 9.366 11.693 11.633 19.526 4.09 22.116 21.441 1.346 23.364" mask="url(#ui-design-2-b)"/>
      <mask id="ui-design-2-d" fill="#fff">
        <use xlink:href="#ui-design-2-c"/>
      </mask>
      <polygon fill="#000" fill-rule="nonzero" points="-.095 15.292 6.135 11.294 12.175 13.561 20.008 6.018 22.598 23.368 1.828 25.292" mask="url(#ui-design-2-d)" opacity=".078"/>
      <mask id="ui-design-2-f" fill="#fff">
        <use xlink:href="#ui-design-2-e"/>
      </mask>
      <polygon fill="#000" fill-rule="nonzero" points="-.095 17.702 6.135 13.704 12.175 15.971 20.008 8.428 22.598 25.778 1.828 27.702" mask="url(#ui-design-2-f)" opacity=".078"/>
      <mask id="ui-design-2-h" fill="#fff">
        <use xlink:href="#ui-design-2-g"/>
      </mask>
      <polygon fill="#000" fill-rule="nonzero" points="-.095 20.111 6.135 16.113 12.175 18.38 20.008 10.837 22.598 28.188 1.828 30.111" mask="url(#ui-design-2-h)" opacity=".078"/>
    </g>
    <path fill="#5367FF" fill-rule="nonzero" d="M29.4116949,6.66101695 L24.3444068,6.66101695 C23.6422034,6.66101695 23.0732203,6.0920339 23.0732203,5.38983051 C23.0732203,4.68762712 23.6422034,4.11864407 24.3444068,4.11864407 L29.4116949,4.11864407 C30.1138983,4.11864407 30.6828814,4.68762712 30.6828814,5.38983051 C30.6828814,6.0920339 30.1138983,6.66101695 29.4116949,6.66101695 Z"/>
    <circle cx="45.591" cy="6.641" r="1.252" fill="#5367FF" fill-rule="nonzero"/>
    <path fill="#00D09C" fill-rule="nonzero" d="M47.4605085,56.9176271 C47.0227119,56.9176271 46.5967797,56.6913559 46.360678,56.2855932 C45.820339,55.3572881 45.5350847,54.2966102 45.5352542,53.2179661 L45.5352542,53.0508475 C45.5352542,52.3486441 46.1042373,51.779661 46.8064407,51.779661 C47.5086441,51.779661 48.0776271,52.3486441 48.0776271,53.0508475 L48.0776271,53.2181356 C48.0774576,53.8481356 48.2435593,54.4664407 48.5581356,55.0067797 C48.9111864,55.6135593 48.7055932,56.3916949 48.0988136,56.7449153 C47.8976271,56.8620339 47.6777966,56.9176271 47.4605085,56.9176271 L47.4605085,56.9176271 Z"/>
    <path fill="#5367FF" fill-rule="nonzero" d="M69.6138983,59.3325424 L71.2276271,59.3325424 C73.4238983,59.3325424 75.210678,57.5457627 75.210678,55.3494915 C75.210678,53.1532203 73.4238983,51.3664407 71.2276271,51.3664407 L69.9820339,51.3664407 L69.9820339,50.6374576 C69.9820339,49.9352542 69.4130508,49.3662712 68.7108475,49.3662712 C68.0086441,49.3662712 67.439661,49.9352542 67.439661,50.6374576 L67.439661,51.3664407 L60.0030508,51.3664407 C58.9498305,51.3567797 57.9027119,51.8088136 57.1325424,52.5918644 C56.3944068,53.3423729 55.9977966,54.3252542 56.0149153,55.3611864 L56.0149153,56.7813559 L52.3474576,56.7813559 C51.6452542,56.7813559 51.0762712,57.350339 51.0762712,58.0525424 C51.0762712,58.0971186 51.0786441,58.1413559 51.0832203,58.1847458 C51.0788136,58.2281356 51.0762712,58.2722034 51.0762712,58.3169492 L51.0762712,79.8525424 C51.0762712,82.270339 49.109322,84.2372881 46.6915254,84.2372881 L7.06440678,84.2372881 C4.64661017,84.2372881 2.67966102,82.270339 2.67966102,79.8525424 L2.67966102,6.92711864 C2.67966102,4.50932203 4.64661017,2.54237288 7.06440678,2.54237288 L12.0135593,2.54237288 L12.5872881,5.53745763 C13.1249153,8.34322034 15.5879661,10.379661 18.4442373,10.379661 L35.3122034,10.379661 C38.1684746,10.379661 40.6315254,8.34305085 41.1691525,5.53728814 L41.7423729,2.54237288 L46.6915254,2.54237288 C49.109322,2.54237288 51.0762712,4.50932203 51.0762712,6.92711864 L51.0762712,32.9177966 C51.0762712,33.62 51.6452542,34.1889831 52.3474576,34.1889831 C53.049661,34.1889831 53.6186441,33.62 53.6186441,32.9177966 L53.6186441,6.92711864 C53.6186441,3.10745763 50.5111864,0 46.6915254,0 L7.06440678,0 C3.24474576,0 0.137288136,3.10745763 0.137288136,6.92711864 L0.137288136,79.8525424 C0.137288136,83.6722034 3.24474576,86.779661 7.06440678,86.779661 L46.6915254,86.779661 C50.5111864,86.779661 53.6186441,83.6722034 53.6186441,79.8525424 L53.6186441,59.3237288 L56.0149153,59.3237288 L56.0149153,66.5789831 C56.0149153,68.7752542 57.8016949,70.5620339 59.9979661,70.5620339 C62.1942373,70.5620339 63.9810169,68.7752542 63.9810169,66.5789831 L63.9810169,64.9652542 L73.0630508,74.0474576 C73.0676271,74.0518644 73.0723729,74.0566102 73.0769492,74.0610169 C73.8055932,74.7677966 74.8422034,75.2025424 75.9174576,75.2025424 C76.8710169,75.2025424 77.8547458,74.860339 78.6805085,74.0625424 C78.6855932,74.0574576 78.6910169,74.0523729 78.6961017,74.0472881 C79.4483051,73.2950847 79.8627119,72.2947458 79.8627119,71.2308475 C79.8627119,70.1669492 79.4481356,69.1667797 78.6961017,68.4145763 L69.6138983,59.3325424 Z M39.1538983,2.54237288 L38.6718644,5.05915254 C38.3635593,6.66898305 36.9505085,7.83745763 35.3120339,7.83745763 L18.4440678,7.83745763 C16.8055932,7.83745763 15.3925424,6.66898305 15.0842373,5.05915254 L14.6022034,2.54237288 L39.1538983,2.54237288 Z M76.9057627,72.2420339 C76.2030508,72.9125424 75.2694915,72.640339 74.8528814,72.2415254 L63.6088136,60.9974576 C63.2450847,60.6337288 62.6983051,60.5249153 62.2233898,60.7220339 C61.7483051,60.9186441 61.4386441,61.3823729 61.4386441,61.8964407 L61.4386441,66.5789831 C61.4386441,67.3733898 60.7923729,68.019661 59.9979661,68.019661 C59.2035593,68.019661 58.5572881,67.3733898 58.5572881,66.5789831 L58.5572881,55.3494915 C58.5572881,55.3408475 58.5571186,55.3322034 58.5569492,55.3237288 C58.5477966,54.8747458 58.7628814,54.5598305 58.9449153,54.3747458 C59.2279661,54.0871186 59.6274576,53.9088136 59.9937288,53.9088136 L59.9979661,53.9088136 L71.2274576,53.9088136 C72.0218644,53.9088136 72.6681356,54.5550847 72.6681356,55.3494915 C72.6681356,56.1438983 72.0218644,56.7901695 71.2274576,56.7901695 L66.5449153,56.7901695 C66.0308475,56.7901695 65.5671186,57.0998305 65.3705085,57.5749153 C65.1737288,58.05 65.2823729,58.5966102 65.6459322,58.960339 L76.8981356,70.2125424 C77.1701695,70.4844068 77.3201695,70.8462712 77.3201695,71.2311864 C77.3201695,71.6122034 77.1730508,71.9708475 76.9057627,72.2420339 L76.9057627,72.2420339 Z"/>
    <path fill="#00D09C" fill-rule="nonzero" d="M46.8064407 48.39C46.1042373 48.39 45.5352542 47.8210169 45.5352542 47.1188136L45.5352542 44.4069492C45.5352542 43.7047458 46.1042373 43.1357627 46.8064407 43.1357627 47.5086441 43.1357627 48.0776271 43.7047458 48.0776271 44.4069492L48.0776271 47.1188136C48.0776271 47.8208475 47.5086441 48.39 46.8064407 48.39zM68.710678 45.9764407C68.0084746 45.9764407 67.4394915 45.4074576 67.4394915 44.7052542L67.4394915 41.9933898C67.4394915 41.2911864 68.0084746 40.7222034 68.710678 40.7222034 69.4128814 40.7222034 69.9818644 41.2911864 69.9818644 41.9933898L69.9818644 44.7052542C69.9818644 45.4072881 69.4128814 45.9764407 68.710678 45.9764407zM47.4398305 39.8574576C47.2257627 39.8574576 47.0091525 39.8035593 46.81 39.689661 46.2005085 39.3411864 45.9889831 38.5645763 46.3374576 37.9552542 46.9081356 36.9571186 47.7450847 36.1425424 48.7576271 35.5994915 49.3767797 35.2676271 50.1469492 35.5005085 50.4786441 36.1188136 50.8105085 36.7374576 50.5779661 37.5081356 49.959322 37.8398305 49.3674576 38.1572881 48.8781356 38.6335593 48.5444068 39.2171186 48.3098305 39.6276271 47.8810169 39.8574576 47.4398305 39.8574576L47.4398305 39.8574576zM66.4154237 38.1398305C66.1871186 38.1398305 65.9561017 38.0784746 65.7479661 37.9494915 65.1871186 37.6027119 64.5401695 37.419322 63.8766102 37.419322L63.8398305 37.419322C63.1376271 37.419322 62.5686441 36.850339 62.5686441 36.1481356 62.5686441 35.4459322 63.1376271 34.8769492 63.8398305 34.8769492L63.8766102 34.8769492C65.0128814 34.8769492 66.1225424 35.1916949 67.0854237 35.7874576 67.6823729 36.1567797 67.8671186 36.9401695 67.4977966 37.5371186 67.2572881 37.9259322 66.8411864 38.1398305 66.4154237 38.1398305L66.4154237 38.1398305zM57.9076271 37.419322L55.1957627 37.419322C54.4935593 37.419322 53.9245763 36.850339 53.9245763 36.1481356 53.9245763 35.4459322 54.4935593 34.8769492 55.1957627 34.8769492L57.9076271 34.8769492C58.6098305 34.8769492 59.1788136 35.4459322 59.1788136 36.1481356 59.1788136 36.850339 58.6098305 37.419322 57.9076271 37.419322z"/>
    <path fill="#00D09C" fill-rule="nonzero" d="M24.2471186 22.9589831C23.5449153 22.9589831 22.9759322 22.39 22.9759322 21.6877966L22.9759322 1.34762712C22.9759322.645423729 23.5449153.076440678 24.2471186.076440678 24.949322.076440678 25.5183051.645423729 25.5183051 1.34762712L25.5183051 21.6877966C25.5183051 22.39 24.9491525 22.9589831 24.2471186 22.9589831zM8.32525424 22.9589831C8.32067797 22.9589831 8.31627119 22.9589831 8.31169492 22.9589831 6.68881356 22.9566102 5.19762712 22.5286441 3.88 21.6867797 1.3379661 20.0627119.102372881 17.9879661.102372881 15.3438983L.102372881 1.34762712C.102372881.645423729.671355932.076440678 1.37355932.076440678 2.07576271.076440678 2.64474576.645423729 2.64474576 1.34762712L2.64474576 15.3438983C2.64474576 17.1218644 3.42355932 18.3781356 5.24881356 19.5442373 6.15220339 20.1213559 7.18389831 20.4149153 8.31542373 20.4164407 9.32186441 20.4132203 10.2652542 20.2049153 11.1018644 19.7835593 13.210678 18.7213559 14.2357627 17.2644068 14.2357627 15.3291525L14.2357627 1.34762712C14.2357627.645423729 14.8047458.076440678 15.5069492.076440678 16.2091525.076440678 16.7781356.645423729 16.7781356 1.34762712L16.7781356 15.3291525C16.7781356 18.2352542 15.210678 20.5608475 12.2452542 22.0542373 11.0532203 22.6545763 9.73440678 22.9589831 8.32525424 22.9589831L8.32525424 22.9589831z" transform="translate(14.068 55.254)"/>
  </g>
</svg>
